<svg width="86" height="24" viewBox="0 0 86 24" fill="none" xmlns="http://www.w3.org/2000/svg">
<path d="M13.245 2.3933L10.4217 0.0466309L0.50334 12L10.4217 23.9533L13.245 21.6066L5.27001 12L13.245 2.3933ZM11.8333 13.8333H15.5V10.1666H11.8333V13.8333ZM74.1667 10.1666H70.5V13.8333H74.1667V10.1666ZM19.1667 13.8333H22.8333V10.1666H19.1667V13.8333ZM75.5783 0.0466309L72.755 2.3933L80.73 12L72.755 21.6066L75.5783 23.9533L85.4967 12L75.5783 0.0466309Z" fill="black"/>
<path d="M30.1667 13.8333H26.5V10.1666H30.1667V13.8333Z" fill="black"/>
<path d="M37.5 13.8333H33.8333V10.1666H37.5V13.8333Z" fill="black"/>
<path d="M44.8333 13.8333H41.1667V10.1666H44.8333V13.8333Z" fill="black"/>
<path d="M52.1667 13.8333H48.5V10.1666H52.1667V13.8333Z" fill="black"/>
<path d="M59.5 13.8333H55.8333V10.1666H59.5V13.8333Z" fill="black"/>
<path d="M66.8333 13.8333H63.1667V10.1666H66.8333V13.8333Z" fill="black"/>
</svg>
