<svg width="207" height="197" viewBox="0 0 207 197" fill="none" xmlns="http://www.w3.org/2000/svg">
<mask id="mask0_21:1239" style="mask-type:alpha" maskUnits="userSpaceOnUse" x="61" y="0" width="88" height="104">
<path fill-rule="evenodd" clip-rule="evenodd" d="M105 48.0215C118.261 48.0215 129.011 37.2715 129.011 24.0108C129.011 10.75 118.261 0 105 0C91.7392 0 80.9892 10.75 80.9892 24.0108C80.9892 37.2715 91.7392 48.0215 105 48.0215ZM111.999 54.9035C107.537 52.9514 102.463 52.9514 98.0007 54.9035L66.5756 68.652C63.3976 70.0424 61.3441 73.1823 61.3441 76.6512V94.9516C61.3441 99.7737 65.2531 103.683 70.0752 103.683L95.7231 103.683V83.4919C95.7231 81.0809 97.6777 79.1264 100.089 79.1264H110.457C112.868 79.1264 114.823 81.0809 114.823 83.4919V103.683L139.925 103.683C144.747 103.683 148.656 99.7737 148.656 94.9516V76.6512C148.656 73.1823 146.602 70.0424 143.424 68.652L111.999 54.9035Z" fill="#F77777"/>
</mask>
<g mask="url(#mask0_21:1239)">
<path fill-rule="evenodd" clip-rule="evenodd" d="M105 48.0215C118.261 48.0215 129.011 37.2715 129.011 24.0108C129.011 10.75 118.261 0 105 0C91.7392 0 80.9892 10.75 80.9892 24.0108C80.9892 37.2715 91.7392 48.0215 105 48.0215ZM111.999 54.9035C107.537 52.9514 102.463 52.9514 98.0007 54.9035L66.5756 68.652C63.3976 70.0424 61.3441 73.1823 61.3441 76.6512V94.9516C61.3441 99.7737 65.2531 103.683 70.0752 103.683L75.5323 103.683C86.6834 103.683 95.7231 94.643 95.7231 83.4919C95.7231 81.0809 97.6777 79.1264 100.089 79.1264H110.457C112.868 79.1264 114.823 81.0809 114.823 83.4919C114.823 94.643 123.862 103.683 135.013 103.683L139.925 103.683C144.747 103.683 148.656 99.7737 148.656 94.9516V76.6512C148.656 73.1823 146.602 70.0424 143.424 68.652L111.999 54.9035Z" fill="#FF810D"/>
<g filter="url(#filter0_f_21:1239)">
<path d="M96.5416 28.9219L36.5147 175.715L253.157 128.239L235.968 10.3682L164.481 60.2996L142.926 19.3722L96.5416 28.9219Z" fill="#A20092"/>
</g>
<g filter="url(#filter1_f_21:1239)">
<path d="M142.332 169.712L73.3494 154.772L78.9702 92.5184L218.979 87.3118L229.965 126.248L164.304 141.189L142.332 169.712Z" fill="#000351"/>
</g>
</g>
<path d="M11.3155 130.453V162.116C11.3155 166.308 11.4861 169.16 11.8273 170.671C12.1686 172.182 12.6561 173.157 13.2898 173.596C14.5573 174.62 16.6535 175.132 19.5784 175.132H21.3334V176.302H0.785667V175.132H1.59003C4.41748 175.034 6.51369 174.425 7.87866 173.304C8.90239 172.426 9.53613 170.379 9.77988 167.161C9.82863 165.991 9.853 164.285 9.853 162.042V132.208C9.853 130.161 9.31676 128.771 8.24428 128.04C7.1718 127.309 5.46558 126.943 3.12562 126.943V125.773H24.9896L34.7882 149.1L48.4623 125.773H67.1819V126.943H62.502V175.132H67.1819V176.302H43.3436V175.132H48.0236V130.453H47.5117L35.4463 150.562L39.6143 160.434C40.7356 162.969 41.2962 165.333 41.2962 167.527C41.2962 169.672 40.4674 171.573 38.81 173.23C37.1525 174.839 34.9344 175.643 32.1557 175.643C26.4033 175.643 23.5271 173.547 23.5271 169.355C23.5271 168.087 24.3802 166.064 26.0865 163.286L11.8273 130.453H11.3155ZM26.7446 164.894C25.5258 166.844 24.9165 168.355 24.9165 169.428C24.9165 170.5 25.209 171.402 25.794 172.134C26.3789 172.865 26.9396 173.23 27.4758 173.23C28.012 173.23 28.4264 173.06 28.7189 172.719C29.0601 172.377 29.2308 171.841 29.2308 171.11C29.2308 170.379 28.8652 169.282 28.1339 167.819L26.8177 164.821L26.7446 164.894ZM81.8437 162.408C81.8437 166.844 82.3799 170.208 83.4524 172.499C84.5736 174.79 86.5967 175.936 89.5217 175.936C92.4954 175.936 95.0547 174.985 97.1996 173.084C99.3934 171.183 100.807 168.624 101.441 165.406L101.587 164.748L102.903 164.967C102.221 168.965 100.539 172.085 97.8578 174.327C95.1766 176.57 91.691 177.691 87.4011 177.691C80.9174 177.691 75.8963 176.155 72.3376 173.084C68.7789 169.964 66.9996 165.504 66.9996 159.703C66.9996 153.901 68.7058 149.392 72.1182 146.175C75.5307 142.908 80.1618 141.275 86.0117 141.275C90.7891 141.275 94.7622 142.177 97.9309 143.981C101.148 145.736 102.757 148.466 102.757 152.171C102.757 155.876 101.27 158.508 98.2965 160.068C95.3228 161.628 91.4473 162.408 86.6698 162.408H81.8437ZM81.7706 155.827V161.092H83.5986C85.7924 161.092 87.3036 160.361 88.1323 158.898C89.0098 157.387 89.4485 155.193 89.4485 152.317C89.4485 145.833 88.3029 142.592 86.0117 142.592C84.5005 142.592 83.4037 143.469 82.7212 145.224C82.0874 146.979 81.7706 150.513 81.7706 155.827ZM95.2787 126.943V125.773H122.408V126.943H116.485L128.696 160.288H129.793L136.52 144.347L129.939 126.943H125.698V125.773H152.827V126.943H146.904L159.116 160.288H160.212L167.964 141.787C169.767 137.546 170.669 134.645 170.669 133.086C170.669 131.526 170.23 130.185 169.353 129.064C168.524 127.942 167.525 127.211 166.355 126.87C165.965 126.773 165.697 126.724 165.551 126.724C165.112 126.724 164.892 126.919 164.892 127.309C164.892 127.699 165.087 127.967 165.477 128.113C167.964 128.991 169.207 130.721 169.207 133.305C169.207 135.011 168.67 136.474 167.598 137.692C166.525 138.862 164.966 139.447 162.918 139.447C160.871 139.447 159.14 138.765 157.726 137.4C156.313 135.986 155.606 134.231 155.606 132.135C155.606 129.99 156.386 128.284 157.946 127.016C159.506 125.749 161.553 125.115 164.088 125.115C166.623 125.115 168.573 125.944 169.938 127.601C171.352 129.259 172.059 130.965 172.059 132.72C172.059 134.426 171.522 136.595 170.45 139.228L155.386 176.302H149.244L137.179 146.175L124.748 176.302H118.824L99.5198 126.943H95.2787ZM184.196 162.408C184.196 166.844 184.733 170.208 185.805 172.499C186.926 174.79 188.949 175.936 191.874 175.936C194.848 175.936 197.407 174.985 199.552 173.084C201.746 171.183 203.16 168.624 203.793 165.406L203.94 164.748L205.256 164.967C204.573 168.965 202.892 172.085 200.21 174.327C197.529 176.57 194.044 177.691 189.754 177.691C183.27 177.691 178.249 176.155 174.69 173.084C171.132 169.964 169.352 165.504 169.352 159.703C169.352 153.901 171.058 149.392 174.471 146.175C177.883 142.908 182.514 141.275 188.364 141.275C193.142 141.275 197.115 142.177 200.284 143.981C203.501 145.736 205.11 148.466 205.11 152.171C205.11 155.876 203.623 158.508 200.649 160.068C197.675 161.628 193.8 162.408 189.022 162.408H184.196ZM184.123 155.827V161.092H185.951C188.145 161.092 189.656 160.361 190.485 158.898C191.362 157.387 191.801 155.193 191.801 152.317C191.801 145.833 190.656 142.592 188.364 142.592C186.853 142.592 185.756 143.469 185.074 145.224C184.44 146.979 184.123 150.513 184.123 155.827Z" fill="black"/>
<defs>
<filter id="filter0_f_21:1239" x="-7.1412" y="-33.2878" width="303.954" height="252.659" filterUnits="userSpaceOnUse" color-interpolation-filters="sRGB">
<feFlood flood-opacity="0" result="BackgroundImageFix"/>
<feBlend mode="normal" in="SourceGraphic" in2="BackgroundImageFix" result="shape"/>
<feGaussianBlur stdDeviation="21.828" result="effect1_foregroundBlur_21:1239"/>
</filter>
<filter id="filter1_f_21:1239" x="29.6935" y="43.6559" width="243.927" height="169.712" filterUnits="userSpaceOnUse" color-interpolation-filters="sRGB">
<feFlood flood-opacity="0" result="BackgroundImageFix"/>
<feBlend mode="normal" in="SourceGraphic" in2="BackgroundImageFix" result="shape"/>
<feGaussianBlur stdDeviation="21.828" result="effect1_foregroundBlur_21:1239"/>
</filter>
</defs>
</svg>
